<svg width="3044" height="2475" xmlns="http://www.w3.org/2000/svg" xmlns:xlink="http://www.w3.org/1999/xlink" xml:space="preserve" overflow="hidden"><defs><clipPath id="clip0"><rect x="678" y="0" width="3044" height="2475"/></clipPath></defs><g clip-path="url(#clip0)" transform="translate(-678 0)"><rect x="678" y="0" width="3044" height="2475" fill="#FFFFFF"/><path d="M896 100.5C896 62.6685 926.669 32 964.5 32L1306.5 32C1344.33 32 1375 62.6685 1375 100.5L1375 100.5C1375 138.332 1344.33 169 1306.5 169L964.5 169C926.669 169 896 138.332 896 100.5Z" fill="#92D050" fill-rule="evenodd" fill-opacity="0.4"/><path d="M896 100.5C896 62.6685 926.669 32 964.5 32L1306.5 32C1344.33 32 1375 62.6685 1375 100.5L1375 100.5C1375 138.332 1344.33 169 1306.5 169L964.5 169C926.669 169 896 138.332 896 100.5Z" fill="#92D050" fill-rule="evenodd" fill-opacity="0.4"/><text font-family="Gadugi,Gadugi_MSFontService,sans-serif" font-weight="400" font-size="73" transform="matrix(1 0 0 1 954.535 127)">Lists Folder</text><path d="M1935 100.5C1935 62.6685 1965.67 32 2003.5 32L2618.5 32C2656.33 32 2687 62.6685 2687 100.5L2687 100.5C2687 138.332 2656.33 169 2618.5 169L2003.5 169C1965.67 169 1935 138.332 1935 100.5Z" fill="#00B0F0" fill-rule="evenodd" fill-opacity="0.4"/><path d="M1935 100.5C1935 62.6685 1965.67 32 2003.5 32L2618.5 32C2656.33 32 2687 62.6685 2687 100.5L2687 100.5C2687 138.332 2656.33 169 2618.5 169L2003.5 169C1965.67 169 1935 138.332 1935 100.5Z" fill="#00B0F0" fill-rule="evenodd" fill-opacity="0.4"/><text font-family="Consolas,Consolas_MSFontService,sans-serif" font-weight="400" font-size="73" transform="matrix(1 0 0 1 2010.33 125)">collate_lists()</text><path d="M1849 352.5C1849 314.668 1879.67 284 1917.5 284L2704.5 284C2742.33 284 2773 314.668 2773 352.5L2773 352.5C2773 390.332 2742.33 421 2704.5 421L1917.5 421C1879.67 421 1849 390.332 1849 352.5Z" fill="#00B0F0" fill-rule="evenodd" fill-opacity="0.4"/><path d="M1849 352.5C1849 314.668 1879.67 284 1917.5 284L2704.5 284C2742.33 284 2773 314.668 2773 352.5L2773 352.5C2773 390.332 2742.33 421 2704.5 421L1917.5 421C1879.67 421 1849 390.332 1849 352.5Z" fill="#00B0F0" fill-rule="evenodd" fill-opacity="0.4"/><text font-family="Consolas,Consolas_MSFontService,sans-serif" font-weight="400" font-size="73" transform="matrix(1 0 0 1 1910.07 378)">get_species_lists2()</text><path d="M2399 604.5C2399 566.668 2429.67 536 2467.5 536L3297.5 536C3335.33 536 3366 566.668 3366 604.5L3366 604.5C3366 642.332 3335.33 673 3297.5 673L2467.5 673C2429.67 673 2399 642.332 2399 604.5Z" fill="#00B0F0" fill-rule="evenodd" fill-opacity="0.4"/><path d="M2399 604.5C2399 566.668 2429.67 536 2467.5 536L3297.5 536C3335.33 536 3366 566.668 3366 604.5L3366 604.5C3366 642.332 3335.33 673 3297.5 673L2467.5 673C2429.67 673 2399 642.332 2399 604.5Z" fill="#00B0F0" fill-rule="evenodd" fill-opacity="0.4"/><text font-family="Consolas,Consolas_MSFontService,sans-serif" font-weight="400" font-size="73" transform="matrix(1 0 0 1 2460.96 630)">assign_common_names()</text><path d="M1826 1113C1826 1075.44 1856.44 1045 1894 1045L2725 1045C2762.56 1045 2793 1075.44 2793 1113L2793 1113C2793 1150.56 2762.56 1181 2725 1181L1894 1181C1856.44 1181 1826 1150.56 1826 1113Z" fill="#00B0F0" fill-rule="evenodd" fill-opacity="0.4"/><path d="M1826 1113C1826 1075.44 1856.44 1045 1894 1045L2725 1045C2762.56 1045 2793 1075.44 2793 1113L2793 1113C2793 1150.56 2762.56 1181 2725 1181L1894 1181C1856.44 1181 1826 1150.56 1826 1113Z" fill="#00B0F0" fill-rule="evenodd" fill-opacity="0.4"/><text font-family="Consolas,Consolas_MSFontService,sans-serif" font-weight="400" font-size="73" transform="matrix(1 0 0 1 1908.33 1138)">filter_occurrences</text><text font-family="Consolas,Consolas_MSFontService,sans-serif" font-weight="400" font-size="73" transform="matrix(1 0 0 1 2630.21 1138)">()</text><path d="M1979 1621.5C1979 1583.67 2009.67 1553 2047.5 1553L2571.5 1553C2609.33 1553 2640 1583.67 2640 1621.5L2640 1621.5C2640 1659.33 2609.33 1690 2571.5 1690L2047.5 1690C2009.67 1690 1979 1659.33 1979 1621.5Z" fill="#00B0F0" fill-rule="evenodd" fill-opacity="0.4"/><path d="M1979 1621.5C1979 1583.67 2009.67 1553 2047.5 1553L2571.5 1553C2609.33 1553 2640 1583.67 2640 1621.5L2640 1621.5C2640 1659.33 2609.33 1690 2571.5 1690L2047.5 1690C2009.67 1690 1979 1659.33 1979 1621.5Z" fill="#00B0F0" fill-rule="evenodd" fill-opacity="0.4"/><text font-family="Consolas,Consolas_MSFontService,sans-serif" font-weight="400" font-size="73" transform="matrix(1 0 0 1 2048.69 1646)">build_email()</text><path d="M779 1113C779 1075.44 809.445 1045 847 1045L1470 1045C1507.56 1045 1538 1075.44 1538 1113L1538 1113C1538 1150.56 1507.56 1181 1470 1181L847 1181C809.445 1181 779 1150.56 779 1113Z" fill="#FF66FF" fill-rule="evenodd" fill-opacity="0.4"/><path d="M779 1113C779 1075.44 809.445 1045 847 1045L1470 1045C1507.56 1045 1538 1075.44 1538 1113L1538 1113C1538 1150.56 1507.56 1181 1470 1181L847 1181C809.445 1181 779 1150.56 779 1113Z" fill="#FF66FF" fill-rule="evenodd" fill-opacity="0.4"/><text font-family="Consolas,Consolas_MSFontService,sans-serif" font-weight="400" font-size="73" transform="matrix(1 0 0 1 837.421 1138)">identify_shape()</text><path d="M818 861C818 823.445 848.445 793 886 793L1431 793C1468.56 793 1499 823.445 1499 861L1499 861C1499 898.556 1468.56 929.001 1431 929.001L886 929C848.445 929 818 898.555 818 861Z" fill="#92D050" fill-rule="evenodd" fill-opacity="0.4"/><path d="M818 861C818 823.445 848.445 793 886 793L1431 793C1468.56 793 1499 823.445 1499 861L1499 861C1499 898.556 1468.56 929.001 1431 929.001L886 929C848.445 929 818 898.555 818 861Z" fill="#92D050" fill-rule="evenodd" fill-opacity="0.4"/><text font-family="Gadugi,Gadugi_MSFontService,sans-serif" font-weight="400" font-size="73" transform="matrix(1 0 0 1 882.968 888)">Shapefiles Folder</text><path d="M1727 1876C1727 1838.45 1757.44 1808 1795 1808L2418 1808C2455.56 1808 2486 1838.45 2486 1876L2486 1876C2486 1913.56 2455.56 1944 2418 1944L1795 1944C1757.44 1944 1727 1913.56 1727 1876Z" fill="#FF66FF" fill-rule="evenodd" fill-opacity="0.4"/><path d="M1727 1876C1727 1838.45 1757.44 1808 1795 1808L2418 1808C2455.56 1808 2486 1838.45 2486 1876L2486 1876C2486 1913.56 2455.56 1944 2418 1944L1795 1944C1757.44 1944 1727 1913.56 1727 1876Z" fill="#FF66FF" fill-rule="evenodd" fill-opacity="0.4"/><text font-family="Consolas,Consolas_MSFontService,sans-serif" font-weight="400" font-size="73" transform="matrix(1 0 0 1 1785.57 1901)">build_gt_table()</text><path d="M1810 2128.5C1810 2090.67 1840.67 2060 1878.5 2060L2740.5 2060C2778.33 2060 2809 2090.67 2809 2128.5L2809 2128.5C2809 2166.33 2778.33 2197 2740.5 2197L1878.5 2197C1840.67 2197 1810 2166.33 1810 2128.5Z" fill="#FF66FF" fill-rule="evenodd" fill-opacity="0.4"/><path d="M1810 2128.5C1810 2090.67 1840.67 2060 1878.5 2060L2740.5 2060C2778.33 2060 2809 2090.67 2809 2128.5L2809 2128.5C2809 2166.33 2778.33 2197 2740.5 2197L1878.5 2197C1840.67 2197 1810 2166.33 1810 2128.5Z" fill="#FF66FF" fill-rule="evenodd" fill-opacity="0.4"/><text font-family="Consolas,Consolas_MSFontService,sans-serif" font-weight="400" font-size="73" transform="matrix(1 0 0 1 1868.23 2154)">build_map_thumbnails()</text><path d="M1727 2381C1727 2343.44 1757.44 2313 1795 2313L2261 2313C2298.56 2313 2329 2343.44 2329 2381L2329 2381C2329 2418.56 2298.56 2449 2261 2449L1795 2449C1757.44 2449 1727 2418.55 1727 2381Z" fill="#FF66FF" fill-rule="evenodd" fill-opacity="0.4"/><path d="M1727 2381C1727 2343.44 1757.44 2313 1795 2313L2261 2313C2298.56 2313 2329 2343.44 2329 2381L2329 2381C2329 2418.56 2298.56 2449 2261 2449L1795 2449C1757.44 2449 1727 2418.55 1727 2381Z" fill="#FF66FF" fill-rule="evenodd" fill-opacity="0.4"/><text font-family="Consolas,Consolas_MSFontService,sans-serif" font-weight="400" font-size="73" transform="matrix(1 0 0 1 1787.32 2406)">send_email()</text><path d="M737 1621.5C737 1583.67 767.669 1553 805.5 1553L1466.5 1553C1504.33 1553 1535 1583.67 1535 1621.5L1535 1621.5C1535 1659.33 1504.33 1690 1466.5 1690L805.5 1690C767.669 1690 737 1659.33 737 1621.5Z" fill="#92D050" fill-rule="evenodd" fill-opacity="0.4"/><path d="M737 1621.5C737 1583.67 767.669 1553 805.5 1553L1466.5 1553C1504.33 1553 1535 1583.67 1535 1621.5L1535 1621.5C1535 1659.33 1504.33 1690 1466.5 1690L805.5 1690C767.669 1690 737 1659.33 737 1621.5Z" fill="#92D050" fill-rule="evenodd" fill-opacity="0.4"/><text font-family="Gadugi,Gadugi_MSFontService,sans-serif" font-weight="400" font-size="73" transform="matrix(1 0 0 1 806.974 1648)">Markdown Template</text><path d="M2992 1367C2992 1329.44 3022.44 1299 3060 1299L3630 1299C3667.56 1299 3698 1329.44 3698 1367L3698 1367C3698 1404.56 3667.56 1435 3630 1435L3060 1435C3022.44 1435 2992 1404.56 2992 1367Z" fill="#9933FF" fill-rule="evenodd" fill-opacity="0.4"/><path d="M2992 1367C2992 1329.44 3022.44 1299 3060 1299L3630 1299C3667.56 1299 3698 1329.44 3698 1367L3698 1367C3698 1404.56 3667.56 1435 3630 1435L3060 1435C3022.44 1435 2992 1404.56 2992 1367Z" fill="#9933FF" fill-rule="evenodd" fill-opacity="0.4"/><text font-family="Gadugi,Gadugi_MSFontService,sans-serif" font-weight="400" font-size="73" transform="matrix(1 0 0 1 3050.68 1394)">Occurrence Media</text><path d="M3060 2130.5C3060 2092.67 3090.67 2062 3128.5 2062L3593.5 2062C3631.33 2062 3662 2092.67 3662 2130.5L3662 2130.5C3662 2168.33 3631.33 2199 3593.5 2199L3128.5 2199C3090.67 2199 3060 2168.33 3060 2130.5Z" fill="#9933FF" fill-rule="evenodd" fill-opacity="0.4"/><path d="M3060 2130.5C3060 2092.67 3090.67 2062 3128.5 2062L3593.5 2062C3631.33 2062 3662 2092.67 3662 2130.5L3662 2130.5C3662 2168.33 3631.33 2199 3593.5 2199L3128.5 2199C3090.67 2199 3060 2168.33 3060 2130.5Z" fill="#9933FF" fill-rule="evenodd" fill-opacity="0.4"/><text font-family="Gadugi,Gadugi_MSFontService,sans-serif" font-weight="400" font-size="73" transform="matrix(1 0 0 1 3125.22 2157)">Location Maps</text><path d="M3054 2385C3054 2347.44 3084.44 2317 3122 2317L3609 2317C3646.56 2317 3677 2347.44 3677 2385L3677 2385C3677 2422.56 3646.56 2453 3609 2453L3122 2453C3084.44 2453 3054 2422.56 3054 2385Z" fill="#9933FF" fill-rule="evenodd" fill-opacity="0.4"/><path d="M3054 2385C3054 2347.44 3084.44 2317 3122 2317L3609 2317C3646.56 2317 3677 2347.44 3677 2385L3677 2385C3677 2422.56 3646.56 2453 3609 2453L3122 2453C3084.44 2453 3054 2422.56 3054 2385Z" fill="#9933FF" fill-rule="evenodd" fill-opacity="0.4"/><text font-family="Gadugi,Gadugi_MSFontService,sans-serif" font-weight="400" font-size="73" transform="matrix(1 0 0 1 3121.74 2412)">Sending Emails</text><path d="M3028 1621.5C3028 1583.67 3058.67 1553 3096.5 1553L3593.5 1553C3631.33 1553 3662 1583.67 3662 1621.5L3662 1621.5C3662 1659.33 3631.33 1690 3593.5 1690L3096.5 1690C3058.67 1690 3028 1659.33 3028 1621.5Z" fill="#9933FF" fill-rule="evenodd" fill-opacity="0.4"/><path d="M3028 1621.5C3028 1583.67 3058.67 1553 3096.5 1553L3593.5 1553C3631.33 1553 3662 1583.67 3662 1621.5L3662 1621.5C3662 1659.33 3631.33 1690 3593.5 1690L3096.5 1690C3058.67 1690 3028 1659.33 3028 1621.5Z" fill="#9933FF" fill-rule="evenodd" fill-opacity="0.4"/><text font-family="Gadugi,Gadugi_MSFontService,sans-serif" font-weight="400" font-size="73" transform="matrix(1 0 0 1 3093.93 1648)">Occurrence .csv</text><path d="M3111 1876C3111 1838.44 3141.44 1808 3179 1808L3552 1808C3589.56 1808 3620 1838.44 3620 1876L3620 1876C3620 1913.56 3589.56 1944 3552 1944L3179 1944C3141.44 1944 3111 1913.56 3111 1876Z" fill="#9933FF" fill-rule="evenodd" fill-opacity="0.4"/><path d="M3111 1876C3111 1838.44 3141.44 1808 3179 1808L3552 1808C3589.56 1808 3620 1838.44 3620 1876L3620 1876C3620 1913.56 3589.56 1944 3552 1944L3179 1944C3141.44 1944 3111 1913.56 3111 1876Z" fill="#9933FF" fill-rule="evenodd" fill-opacity="0.4"/><text font-family="Gadugi,Gadugi_MSFontService,sans-serif" font-weight="400" font-size="73" transform="matrix(1 0 0 1 3175.18 1903)">.html Tables</text><path d="M1375 94.8438 1908.98 94.8441 1908.98 105.157 1375 105.156ZM1903.83 84.5316 1934.76 100 1903.83 115.469Z"/><path d="M5.15625-1.60617e-05 5.15653 90.0749-5.15597 90.075-5.15625 1.60617e-05ZM15.469 84.9187 0.000360892 115.856-15.4685 84.9187Z" transform="matrix(-1 0 0 1 2311 169)"/><path d="M5.15625-3.17523e-05 5.15681 91.4294-5.15569 91.4295-5.15625 3.17523e-05ZM15.4693 86.273 0.000721785 117.211-15.4682 86.2732Z" transform="matrix(-1 0 0 1 2309 1181)"/><path d="M5.15625-1.60716e-05 5.15653 90.0038-5.15597 90.0039-5.15625 1.60716e-05ZM15.469 84.8476 0.000360892 115.785-15.4685 84.8476Z" transform="matrix(-1 0 0 1 1158 929)"/><path d="M1535 1615.84 1953.45 1615.84 1953.45 1626.16 1535 1626.16ZM1948.3 1605.53 1979.23 1621 1948.3 1636.47Z"/><path d="M2816.01 1361.84 2966.08 1362.07 2966.07 1372.38 2815.99 1372.16ZM2960.94 1351.75 2991.86 1367.26 2960.9 1382.69Z"/><path d="M2640 1615.84 3002.61 1615.86 3002.61 1626.18 2640 1626.16ZM2997.46 1605.55 3028.39 1621.02 2997.45 1636.49Z"/><path d="M0-5.15625 57.2012-5.15625 57.2012 570.942 52.0449 565.786 89.7693 565.786 89.7693 576.098 46.8887 576.098 46.8887 0 52.0449 5.15625 0 5.15625ZM84.613 555.473 115.551 570.942 84.613 586.411Z" transform="matrix(1.83697e-16 1 1 -1.83697e-16 2311 421)"/><path d="M2886.83 673 2886.83 731.037 2309 731.037 2314.16 725.88 2314.16 765.279 2303.84 765.279 2303.84 720.724 2881.68 720.724 2876.52 725.88 2876.52 673ZM2324.47 760.123 2309 791.06 2293.53 760.123Z"/><path d="M2314.67 1715.78 2314.67 1754.17 2301.49 1754.17 2301.49 1743.85 2309.52 1743.85 2304.36 1749.01 2304.36 1715.78ZM2270.56 1754.17 2229.31 1754.17 2229.31 1743.85 2270.56 1743.85ZM2198.37 1754.17 2157.12 1754.17 2157.12 1743.85 2198.37 1743.85ZM2126.18 1754.17 2084.93 1754.17 2084.93 1743.85 2126.18 1743.85ZM2053.99 1754.17 2012.74 1754.17 2012.74 1743.85 2053.99 1743.85ZM1981.81 1754.17 1940.56 1754.17 1940.56 1743.85 1981.81 1743.85ZM1909.62 1754.17 1868.37 1754.17 1868.37 1743.85 1909.62 1743.85ZM1837.43 1754.17 1796.18 1754.17 1796.18 1743.85 1837.43 1743.85ZM1765.24 1754.17 1723.99 1754.17 1723.99 1743.85 1765.24 1743.85ZM1693.06 1754.17 1651.81 1754.17 1651.81 1743.85 1693.06 1743.85ZM1649.66 1772.64 1649.66 1813.89 1639.34 1813.89 1639.34 1772.64ZM1649.66 1844.83 1649.66 1876.23 1644.5 1871.07 1654.35 1871.07 1654.35 1881.38 1639.34 1881.38 1639.34 1844.83ZM1685.29 1871.07 1726.54 1871.07 1726.54 1881.38 1685.29 1881.38ZM2294.05 1720.94 2309.52 1690 2324.98 1720.94Z"/><path d="M2314.67 1715.78 2314.67 1755.11 2302.43 1755.11 2302.43 1744.79 2309.52 1744.79 2304.36 1749.95 2304.36 1715.78ZM2271.5 1755.11 2230.25 1755.11 2230.25 1744.79 2271.5 1744.79ZM2199.31 1755.11 2158.06 1755.11 2158.06 1744.79 2199.31 1744.79ZM2127.12 1755.11 2085.87 1755.11 2085.87 1744.79 2127.12 1744.79ZM2054.93 1755.11 2013.68 1755.11 2013.68 1744.79 2054.93 1744.79ZM1982.75 1755.11 1941.5 1755.11 1941.5 1744.79 1982.75 1744.79ZM1910.56 1755.11 1869.31 1755.11 1869.31 1744.79 1910.56 1744.79ZM1838.37 1755.11 1797.12 1755.11 1797.12 1744.79 1838.37 1744.79ZM1766.18 1755.11 1724.93 1755.11 1724.93 1744.79 1766.18 1744.79ZM1694 1755.11 1652.75 1755.11 1652.75 1744.79 1694 1744.79ZM1649.65 1772.64 1649.65 1813.89 1639.34 1813.89 1639.34 1772.64ZM1649.65 1844.83 1649.65 1886.08 1639.34 1886.08 1639.34 1844.83ZM1649.65 1917.01 1649.65 1958.26 1639.34 1958.26 1639.34 1917.01ZM1649.65 1989.2 1649.65 2030.45 1639.34 2030.45 1639.34 1989.2ZM1649.65 2061.39 1649.65 2102.64 1639.34 2102.64 1639.34 2061.39ZM1649.65 2133.58 1649.65 2174.83 1639.34 2174.83 1639.34 2133.58ZM1649.65 2205.76 1649.65 2247.01 1639.34 2247.01 1639.34 2205.76ZM1649.65 2277.95 1649.65 2319.2 1639.34 2319.2 1639.34 2277.95ZM1649.65 2350.14 1649.65 2381.7 1644.5 2376.54 1654.19 2376.54 1654.19 2386.85 1639.34 2386.85 1639.34 2350.14ZM1685.13 2376.54 1726.38 2376.54 1726.38 2386.85 1685.13 2386.85ZM2294.05 1720.94 2309.52 1690 2324.98 1720.94Z"/><path d="M5.15619-0.024189 6.77114 344.223-3.54124 344.272-5.15619 0.024189ZM17.0593 339.018 1.73589 370.028-13.8778 339.163Z" transform="matrix(-1 0 0 1 2310.74 421)"/><path d="M25.7812-5.15625 63.3153-5.15625 63.3153 8.87218 53.0028 8.87218 53.0028 0 58.1591 5.15625 25.7812 5.15625ZM63.3153 39.8097 63.3153 81.0597 53.0028 81.0597 53.0028 39.8097ZM63.3153 111.997 63.3153 153.247 53.0028 153.247 53.0028 111.997ZM63.3153 184.185 63.3153 202.971 58.1591 197.815 80.6228 197.815 80.6228 208.127 53.0028 208.127 53.0028 184.185ZM111.56 197.815 116.318 197.815 116.318 208.127 111.56 208.127ZM30.9375 15.4688 0 0 30.9375-15.4688Z" transform="matrix(1.83697e-16 1 1 -1.83697e-16 2106 1944)"/><path d="M2809.04 2123.84 3034.63 2125.46 3034.56 2135.78 2808.96 2134.16ZM3029.55 2115.11 3060.38 2130.8 3029.33 2146.05Z"/><path d="M2640 1615.84 2881.03 1615.84 2881.03 1875.5 2875.87 1870.34 3085.97 1870.34 3085.97 1880.65 2870.72 1880.65 2870.72 1621 2875.87 1626.16 2640 1626.16ZM3080.81 1860.03 3111.75 1875.5 3080.81 1890.97Z"/><path d="M2329.03 2375.84 3027.74 2379.26 3027.69 2389.58 2328.97 2386.16ZM3022.64 2368.93 3053.5 2384.55 3022.49 2399.86Z"/><path d="M25.781-5.15622 67.031-5.15617 67.031 5.15633 25.781 5.15628ZM97.9685-5.15613 139.219-5.15608 139.218 5.15642 97.9685 5.15637ZM170.156-5.15604 211.406-5.15599 211.406 5.15651 170.156 5.15646ZM242.344-5.15595 283.594-5.1559 283.594 5.1566 242.344 5.15655ZM30.9375 15.4688 0 0 30.9375-15.4687Z" transform="matrix(-1 0 0 1 1826.33 1113)"/><path d="M756 1878C756 1856.46 773.461 1839 795 1839L1021 1839C1042.54 1839 1060 1856.46 1060 1878L1060 1878C1060 1899.54 1042.54 1917 1021 1917L795 1917C773.461 1917 756 1899.54 756 1878Z" fill="#92D050" fill-rule="evenodd" fill-opacity="0.4"/><path d="M756 1878C756 1856.46 773.461 1839 795 1839L1021 1839C1042.54 1839 1060 1856.46 1060 1878L1060 1878C1060 1899.54 1042.54 1917 1021 1917L795 1917C773.461 1917 756 1899.54 756 1878Z" fill="#92D050" fill-rule="evenodd" fill-opacity="0.4"/><text font-family="Gadugi,Gadugi_MSFontService,sans-serif" font-weight="400" font-size="64" transform="matrix(1 0 0 1 819.569 1901)">Inputs</text><path d="M756 1961.5C756 1940.24 773.237 1923 794.5 1923L1448.5 1923C1469.76 1923 1487 1940.24 1487 1961.5L1487 1961.5C1487 1982.76 1469.76 2000 1448.5 2000L794.5 2000C773.237 2000 756 1982.76 756 1961.5Z" fill="#00B0F0" fill-rule="evenodd" fill-opacity="0.4"/><path d="M756 1961.5C756 1940.24 773.237 1923 794.5 1923L1448.5 1923C1469.76 1923 1487 1940.24 1487 1961.5L1487 1961.5C1487 1982.76 1469.76 2000 1448.5 2000L794.5 2000C773.237 2000 756 1982.76 756 1961.5Z" fill="#00B0F0" fill-rule="evenodd" fill-opacity="0.4"/><text font-family="Consolas,Consolas_MSFontService,sans-serif" font-weight="400" font-size="64" transform="matrix(1 0 0 1 801.555 1984)">Workflow Functions</text><path d="M756 2045C756 2023.46 773.461 2006 795 2006L1375 2006C1396.54 2006 1414 2023.46 1414 2045L1414 2045C1414 2066.54 1396.54 2084 1375 2084L795 2084C773.461 2084 756 2066.54 756 2045Z" fill="#FF66FF" fill-rule="evenodd" fill-opacity="0.4"/><path d="M756 2045C756 2023.46 773.461 2006 795 2006L1375 2006C1396.54 2006 1414 2023.46 1414 2045L1414 2045C1414 2066.54 1396.54 2084 1375 2084L795 2084C773.461 2084 756 2066.54 756 2045Z" fill="#FF66FF" fill-rule="evenodd" fill-opacity="0.4"/><text font-family="Consolas,Consolas_MSFontService,sans-serif" font-weight="400" font-size="64" transform="matrix(1 0 0 1 800.459 2068)">Called Functions</text><path d="M756 2129C756 2107.46 773.461 2090 795 2090L1037 2090C1058.54 2090 1076 2107.46 1076 2129L1076 2129C1076 2150.54 1058.54 2168 1037 2168L795 2168C773.461 2168 756 2150.54 756 2129Z" fill="#9933FF" fill-rule="evenodd" fill-opacity="0.4"/><path d="M756 2129C756 2107.46 773.461 2090 795 2090L1037 2090C1058.54 2090 1076 2107.46 1076 2129L1076 2129C1076 2150.54 1058.54 2168 1037 2168L795 2168C773.461 2168 756 2150.54 756 2129Z" fill="#9933FF" fill-rule="evenodd" fill-opacity="0.4"/><text font-family="Gadugi,Gadugi_MSFontService,sans-serif" font-weight="400" font-size="64" transform="matrix(1 0 0 1 800.949 2153)">Outputs</text><text font-family="Gadugi,Gadugi_MSFontService,sans-serif" font-weight="700" font-size="64" transform="matrix(1 0 0 1 789.634 1817)">KEY</text><text font-family="Gadugi,Gadugi_MSFontService,sans-serif" font-weight="400" font-size="64" transform="matrix(1 0 0 1 989.54 2247)">Argument flow</text><path d="M779 2217.84 936.629 2217.84 936.629 2228.16 779 2228.16ZM931.473 2207.53 962.41 2223 931.473 2238.47Z"/><text font-family="Gadugi,Gadugi_MSFontService,sans-serif" font-weight="400" font-size="64" transform="matrix(1 0 0 1 989.54 2331)">Is called by…</text><path d="M779 2301.84 820.25 2301.84 820.25 2312.16 779 2312.16ZM851.187 2301.84 892.437 2301.84 892.437 2312.16 851.187 2312.16ZM923.375 2301.84 936.629 2301.84 936.629 2312.16 923.375 2312.16ZM931.473 2291.53 962.41 2307 931.473 2322.47Z"/><path d="M737 1807.98C737 1778.72 760.719 1755 789.979 1755L1470.02 1755C1499.28 1755 1523 1778.72 1523 1807.98L1523 2328.02C1523 2357.28 1499.28 2381 1470.02 2381L789.979 2381C760.719 2381 737 2357.28 737 2328.02Z" stroke="#000000" stroke-width="2.29167" stroke-miterlimit="8" fill="none" fill-rule="evenodd"/><path d="M1852 859C1852 821.445 1882.45 791 1920 791L2699 791C2736.56 791 2767 821.445 2767 859L2767 859C2767 896.556 2736.55 927.001 2699 927.001L1920 927C1882.45 927 1852 896.555 1852 859Z" fill="#00B0F0" fill-rule="evenodd" fill-opacity="0.4"/><path d="M1852 859C1852 821.445 1882.45 791 1920 791L2699 791C2736.56 791 2767 821.445 2767 859L2767 859C2767 896.556 2736.55 927.001 2699 927.001L1920 927C1882.45 927 1852 896.555 1852 859Z" fill="#00B0F0" fill-rule="evenodd" fill-opacity="0.4"/><text font-family="Consolas,Consolas_MSFontService,sans-serif" font-weight="400" font-size="73" transform="matrix(1 0 0 1 1908.33 884)">search_occurrences</text><text font-family="Consolas,Consolas_MSFontService,sans-serif" font-weight="400" font-size="73" transform="matrix(1 0 0 1 2630.21 884)">()</text><path d="M1802 1367C1802 1329.44 1832.44 1299 1870 1299L2748 1299C2785.56 1299 2816 1329.44 2816 1367L2816 1367C2816 1404.56 2785.56 1435 2748 1435L1870 1435C1832.44 1435 1802 1404.56 1802 1367Z" fill="#00B0F0" fill-rule="evenodd" fill-opacity="0.4"/><path d="M1802 1367C1802 1329.44 1832.44 1299 1870 1299L2748 1299C2785.56 1299 2816 1329.44 2816 1367L2816 1367C2816 1404.56 2785.56 1435 2748 1435L1870 1435C1832.44 1435 1802 1404.56 1802 1367Z" fill="#00B0F0" fill-rule="evenodd" fill-opacity="0.4"/><text font-family="Consolas,Consolas_MSFontService,sans-serif" font-weight="400" font-size="73" transform="matrix(1 0 0 1 1868.23 1392)">download_occurrences</text><text font-family="Consolas,Consolas_MSFontService,sans-serif" font-weight="400" font-size="73" transform="matrix(1 0 0 1 2670.31 1392)">()</text><path d="M5.15625-1.58109e-05 5.15653 91.9126-5.15597 91.9127-5.15625 1.58109e-05ZM15.469 86.7563 0.000360892 117.694-15.4685 86.7564Z" transform="matrix(-1 0 0 1 2309 927)"/><path d="M2314.16 1435 2314.16 1527.3 2303.84 1527.3 2303.84 1435ZM2324.47 1522.14 2309 1553.08 2293.53 1522.14Z"/></g></svg>