<svg width="3045" height="1988" xmlns="http://www.w3.org/2000/svg" xmlns:xlink="http://www.w3.org/1999/xlink" xml:space="preserve" overflow="hidden"><defs><clipPath id="clip0"><rect x="568" y="190" width="3045" height="1988"/></clipPath></defs><g clip-path="url(#clip0)" transform="translate(-568 -190)"><rect x="568" y="190" width="3045" height="1988" fill="#FFFFFF"/><path d="M787 297C787 259.445 817.445 229 855 229L1198 229C1235.56 229 1266 259.445 1266 297L1266 297C1266 334.556 1235.56 365.001 1198 365.001L855 365C817.445 365 787 334.555 787 297Z" fill="#92D050" fill-rule="evenodd" fill-opacity="0.4"/><path d="M787 297C787 259.445 817.445 229 855 229L1198 229C1235.56 229 1266 259.445 1266 297L1266 297C1266 334.556 1235.56 365.001 1198 365.001L855 365C817.445 365 787 334.555 787 297Z" fill="#92D050" fill-rule="evenodd" fill-opacity="0.4"/><text font-family="Gadugi,Gadugi_MSFontService,sans-serif" font-weight="400" font-size="73" transform="matrix(1 0 0 1 845.163 324)">Lists Folder</text><path d="M1826 297C1826 259.445 1856.44 229 1894 229L2510 229C2547.56 229 2578 259.445 2578 297L2578 297C2578 334.555 2547.56 365 2510 365L1894 365C1856.44 365 1826 334.555 1826 297Z" fill="#00B0F0" fill-rule="evenodd" fill-opacity="0.4"/><path d="M1826 297C1826 259.445 1856.44 229 1894 229L2510 229C2547.56 229 2578 259.445 2578 297L2578 297C2578 334.555 2547.56 365 2510 365L1894 365C1856.44 365 1826 334.555 1826 297Z" fill="#00B0F0" fill-rule="evenodd" fill-opacity="0.4"/><text font-family="Consolas,Consolas_MSFontService,sans-serif" font-weight="400" font-size="73" transform="matrix(1 0 0 1 1900.96 322)">collate_lists()</text><path d="M1740 549.5C1740 511.668 1770.67 481 1808.5 481L2595.5 481C2633.33 481 2664 511.668 2664 549.5L2664 549.5C2664 587.332 2633.33 618 2595.5 618L1808.5 618C1770.67 618 1740 587.332 1740 549.5Z" fill="#00B0F0" fill-rule="evenodd" fill-opacity="0.4"/><path d="M1740 549.5C1740 511.668 1770.67 481 1808.5 481L2595.5 481C2633.33 481 2664 511.668 2664 549.5L2664 549.5C2664 587.332 2633.33 618 2595.5 618L1808.5 618C1770.67 618 1740 587.332 1740 549.5Z" fill="#00B0F0" fill-rule="evenodd" fill-opacity="0.4"/><text font-family="Consolas,Consolas_MSFontService,sans-serif" font-weight="400" font-size="73" transform="matrix(1 0 0 1 1800.7 575)">get_species_lists2()</text><path d="M2289 801.5C2289 763.668 2319.67 733 2357.5 733L3187.5 733C3225.33 733 3256 763.668 3256 801.5L3256 801.5C3256 839.332 3225.33 870 3187.5 870L2357.5 870C2319.67 870 2289 839.332 2289 801.5Z" fill="#00B0F0" fill-rule="evenodd" fill-opacity="0.4"/><path d="M2289 801.5C2289 763.668 2319.67 733 2357.5 733L3187.5 733C3225.33 733 3256 763.668 3256 801.5L3256 801.5C3256 839.332 3225.33 870 3187.5 870L2357.5 870C2319.67 870 2289 839.332 2289 801.5Z" fill="#00B0F0" fill-rule="evenodd" fill-opacity="0.4"/><text font-family="Consolas,Consolas_MSFontService,sans-serif" font-weight="400" font-size="73" transform="matrix(1 0 0 1 2351.59 826)">assign_common_names()</text><path d="M1800 1054.5C1800 1016.67 1830.67 986 1868.5 986L2535.5 986C2573.33 986 2604 1016.67 2604 1054.5L2604 1054.5C2604 1092.33 2573.33 1123 2535.5 1123L1868.5 1123C1830.67 1123 1800 1092.33 1800 1054.5Z" fill="#00B0F0" fill-rule="evenodd" fill-opacity="0.4"/><path d="M1800 1054.5C1800 1016.67 1830.67 986 1868.5 986L2535.5 986C2573.33 986 2604 1016.67 2604 1054.5L2604 1054.5C2604 1092.33 2573.33 1123 2535.5 1123L1868.5 1123C1830.67 1123 1800 1092.33 1800 1054.5Z" fill="#00B0F0" fill-rule="evenodd" fill-opacity="0.4"/><text font-family="Consolas,Consolas_MSFontService,sans-serif" font-weight="400" font-size="73" transform="matrix(1 0 0 1 1860.85 1079)">get_occurrences()</text><path d="M1870 1306C1870 1268.44 1900.44 1238 1938 1238L2462 1238C2499.56 1238 2530 1268.44 2530 1306L2530 1306C2530 1343.56 2499.56 1374 2462 1374L1938 1374C1900.44 1374 1870 1343.56 1870 1306Z" fill="#00B0F0" fill-rule="evenodd" fill-opacity="0.4"/><path d="M1870 1306C1870 1268.44 1900.44 1238 1938 1238L2462 1238C2499.56 1238 2530 1268.44 2530 1306L2530 1306C2530 1343.56 2499.56 1374 2462 1374L1938 1374C1900.44 1374 1870 1343.56 1870 1306Z" fill="#00B0F0" fill-rule="evenodd" fill-opacity="0.4"/><text font-family="Consolas,Consolas_MSFontService,sans-serif" font-weight="400" font-size="73" transform="matrix(1 0 0 1 1939.32 1331)">build_email()</text><path d="M647 1052C647 1014.44 677.444 984 715 984L1338 984C1375.56 984 1406 1014.44 1406 1052L1406 1052C1406 1089.56 1375.56 1120 1338 1120L715 1120C677.444 1120 647 1089.56 647 1052Z" fill="#FF66FF" fill-rule="evenodd" fill-opacity="0.4"/><path d="M647 1052C647 1014.44 677.444 984 715 984L1338 984C1375.56 984 1406 1014.44 1406 1052L1406 1052C1406 1089.56 1375.56 1120 1338 1120L715 1120C677.444 1120 647 1089.56 647 1052Z" fill="#FF66FF" fill-rule="evenodd" fill-opacity="0.4"/><text font-family="Consolas,Consolas_MSFontService,sans-serif" font-weight="400" font-size="73" transform="matrix(1 0 0 1 705.657 1077)">identify_shape()</text><path d="M686 800C686 762.445 716.445 732 754 732L1299 732C1336.56 732 1367 762.445 1367 800L1367 800C1367 837.556 1336.56 868.001 1299 868.001L754 868C716.445 868 686 837.555 686 800Z" fill="#92D050" fill-rule="evenodd" fill-opacity="0.4"/><path d="M686 800C686 762.445 716.445 732 754 732L1299 732C1336.56 732 1367 762.445 1367 800L1367 800C1367 837.556 1336.56 868.001 1299 868.001L754 868C716.445 868 686 837.555 686 800Z" fill="#92D050" fill-rule="evenodd" fill-opacity="0.4"/><text font-family="Gadugi,Gadugi_MSFontService,sans-serif" font-weight="400" font-size="73" transform="matrix(1 0 0 1 751.205 827)">Shapefiles Folder</text><path d="M1617 1560C1617 1522.44 1647.44 1492 1685 1492L2309 1492C2346.56 1492 2377 1522.44 2377 1560L2377 1560C2377 1597.56 2346.56 1628 2309 1628L1685 1628C1647.44 1628 1617 1597.56 1617 1560Z" fill="#FF66FF" fill-rule="evenodd" fill-opacity="0.4"/><path d="M1617 1560C1617 1522.44 1647.44 1492 1685 1492L2309 1492C2346.56 1492 2377 1522.44 2377 1560L2377 1560C2377 1597.56 2346.56 1628 2309 1628L1685 1628C1647.44 1628 1617 1597.56 1617 1560Z" fill="#FF66FF" fill-rule="evenodd" fill-opacity="0.4"/><text font-family="Consolas,Consolas_MSFontService,sans-serif" font-weight="400" font-size="73" transform="matrix(1 0 0 1 1676.2 1585)">build_gt_table()</text><path d="M1701 1813C1701 1775.44 1731.44 1745 1769 1745L2631 1745C2668.56 1745 2699 1775.44 2699 1813L2699 1813C2699 1850.56 2668.56 1881 2631 1881L1769 1881C1731.44 1881 1701 1850.56 1701 1813Z" fill="#FF66FF" fill-rule="evenodd" fill-opacity="0.4"/><path d="M1701 1813C1701 1775.44 1731.44 1745 1769 1745L2631 1745C2668.56 1745 2699 1775.44 2699 1813L2699 1813C2699 1850.56 2668.56 1881 2631 1881L1769 1881C1731.44 1881 1701 1850.56 1701 1813Z" fill="#FF66FF" fill-rule="evenodd" fill-opacity="0.4"/><text font-family="Consolas,Consolas_MSFontService,sans-serif" font-weight="400" font-size="73" transform="matrix(1 0 0 1 1758.85 1838)">build_map_thumbnails()</text><path d="M1617 2065.5C1617 2027.67 1647.67 1997 1685.5 1997L2151.5 1997C2189.33 1997 2220 2027.67 2220 2065.5L2220 2065.5C2220 2103.33 2189.33 2134 2151.5 2134L1685.5 2134C1647.67 2134 1617 2103.33 1617 2065.5Z" fill="#FF66FF" fill-rule="evenodd" fill-opacity="0.4"/><path d="M1617 2065.5C1617 2027.67 1647.67 1997 1685.5 1997L2151.5 1997C2189.33 1997 2220 2027.67 2220 2065.5L2220 2065.5C2220 2103.33 2189.33 2134 2151.5 2134L1685.5 2134C1647.67 2134 1617 2103.33 1617 2065.5Z" fill="#FF66FF" fill-rule="evenodd" fill-opacity="0.4"/><text font-family="Consolas,Consolas_MSFontService,sans-serif" font-weight="400" font-size="73" transform="matrix(1 0 0 1 1677.95 2091)">send_email()</text><path d="M628 1306C628 1268.44 658.445 1238 696 1238L1357 1238C1394.56 1238 1425 1268.44 1425 1306L1425 1306C1425 1343.56 1394.56 1374 1357 1374L696 1374C658.445 1374 628 1343.56 628 1306Z" fill="#92D050" fill-rule="evenodd" fill-opacity="0.4"/><path d="M628 1306C628 1268.44 658.445 1238 696 1238L1357 1238C1394.56 1238 1425 1268.44 1425 1306L1425 1306C1425 1343.56 1394.56 1374 1357 1374L696 1374C658.445 1374 628 1343.56 628 1306Z" fill="#92D050" fill-rule="evenodd" fill-opacity="0.4"/><text font-family="Gadugi,Gadugi_MSFontService,sans-serif" font-weight="400" font-size="73" transform="matrix(1 0 0 1 697.602 1333)">Markdown Template</text><path d="M2873 1054.5C2873 1016.67 2903.67 986 2941.5 986L3510.5 986C3548.33 986 3579 1016.67 3579 1054.5L3579 1054.5C3579 1092.33 3548.33 1123 3510.5 1123L2941.5 1123C2903.67 1123 2873 1092.33 2873 1054.5Z" fill="#9933FF" fill-rule="evenodd" fill-opacity="0.4"/><path d="M2873 1054.5C2873 1016.67 2903.67 986 2941.5 986L3510.5 986C3548.33 986 3579 1016.67 3579 1054.5L3579 1054.5C3579 1092.33 3548.33 1123 3510.5 1123L2941.5 1123C2903.67 1123 2873 1092.33 2873 1054.5Z" fill="#9933FF" fill-rule="evenodd" fill-opacity="0.4"/><text font-family="Gadugi,Gadugi_MSFontService,sans-serif" font-weight="400" font-size="73" transform="matrix(1 0 0 1 2931.57 1081)">Occurrence Media</text><path d="M2951 1814.5C2951 1776.67 2981.67 1746 3019.5 1746L3484.5 1746C3522.33 1746 3553 1776.67 3553 1814.5L3553 1814.5C3553 1852.33 3522.33 1883 3484.5 1883L3019.5 1883C2981.67 1883 2951 1852.33 2951 1814.5Z" fill="#9933FF" fill-rule="evenodd" fill-opacity="0.4"/><path d="M2951 1814.5C2951 1776.67 2981.67 1746 3019.5 1746L3484.5 1746C3522.33 1746 3553 1776.67 3553 1814.5L3553 1814.5C3553 1852.33 3522.33 1883 3484.5 1883L3019.5 1883C2981.67 1883 2951 1852.33 2951 1814.5Z" fill="#9933FF" fill-rule="evenodd" fill-opacity="0.4"/><text font-family="Gadugi,Gadugi_MSFontService,sans-serif" font-weight="400" font-size="73" transform="matrix(1 0 0 1 3015.85 1842)">Location Maps</text><path d="M2944 2065.5C2944 2027.67 2974.67 1997 3012.5 1997L3499.5 1997C3537.33 1997 3568 2027.67 3568 2065.5L3568 2065.5C3568 2103.33 3537.33 2134 3499.5 2134L3012.5 2134C2974.67 2134 2944 2103.33 2944 2065.5Z" fill="#9933FF" fill-rule="evenodd" fill-opacity="0.4"/><path d="M2944 2065.5C2944 2027.67 2974.67 1997 3012.5 1997L3499.5 1997C3537.33 1997 3568 2027.67 3568 2065.5L3568 2065.5C3568 2103.33 3537.33 2134 3499.5 2134L3012.5 2134C2974.67 2134 2944 2103.33 2944 2065.5Z" fill="#9933FF" fill-rule="evenodd" fill-opacity="0.4"/><text font-family="Gadugi,Gadugi_MSFontService,sans-serif" font-weight="400" font-size="73" transform="matrix(1 0 0 1 3012.37 2093)">Sending Emails</text><path d="M2919 1306C2919 1268.44 2949.45 1238 2987 1238L3485 1238C3522.56 1238 3553 1268.44 3553 1306L3553 1306C3553 1343.56 3522.56 1374 3485 1374L2987 1374C2949.45 1374 2919 1343.56 2919 1306Z" fill="#9933FF" fill-rule="evenodd" fill-opacity="0.4"/><path d="M2919 1306C2919 1268.44 2949.45 1238 2987 1238L3485 1238C3522.56 1238 3553 1268.44 3553 1306L3553 1306C3553 1343.56 3522.56 1374 3485 1374L2987 1374C2949.45 1374 2919 1343.56 2919 1306Z" fill="#9933FF" fill-rule="evenodd" fill-opacity="0.4"/><text font-family="Gadugi,Gadugi_MSFontService,sans-serif" font-weight="400" font-size="73" transform="matrix(1 0 0 1 2984.56 1333)">Occurrence .csv</text><path d="M3002 1560C3002 1522.44 3032.44 1492 3070 1492L3442 1492C3479.56 1492 3510 1522.44 3510 1560L3510 1560C3510 1597.56 3479.56 1628 3442 1628L3070 1628C3032.44 1628 3002 1597.56 3002 1560Z" fill="#9933FF" fill-rule="evenodd" fill-opacity="0.4"/><path d="M3002 1560C3002 1522.44 3032.44 1492 3070 1492L3442 1492C3479.56 1492 3510 1522.44 3510 1560L3510 1560C3510 1597.56 3479.56 1628 3442 1628L3070 1628C3032.44 1628 3002 1597.56 3002 1560Z" fill="#9933FF" fill-rule="evenodd" fill-opacity="0.4"/><text font-family="Gadugi,Gadugi_MSFontService,sans-serif" font-weight="400" font-size="73" transform="matrix(1 0 0 1 3065.81 1587)">.html Tables</text><path d="M1266 291.844 1799.98 291.844 1799.98 302.157 1266 302.156ZM1794.83 281.532 1825.76 297 1794.83 312.469Z"/><path d="M5.15625-1.60617e-05 5.15653 90.0749-5.15597 90.075-5.15625 1.60617e-05ZM15.469 84.9187 0.000360892 115.856-15.4685 84.9187Z" transform="matrix(-1 0 0 1 2202 365)"/><path d="M5.15566-0.0778856 6.50285 89.0996-3.80847 89.2554-5.15566 0.0778856ZM16.7363 83.7881 1.73661 114.956-14.1977 84.2555Z" transform="matrix(-1 0 0 1 2201.74 1123)"/><path d="M5.15625-1.60716e-05 5.15653 90.0038-5.15597 90.0039-5.15625 1.60716e-05ZM15.469 84.8476 0.000360892 115.785-15.4685 84.8476Z" transform="matrix(-1 0 0 1 1026 868)"/><path d="M1425 1300.84 1843.45 1300.84 1843.45 1311.16 1425 1311.16ZM1838.3 1290.53 1869.23 1306 1838.3 1321.47Z"/><path d="M2604 1048.84 2847.86 1048.84 2847.86 1059.16 2604 1059.16ZM2842.7 1038.53 2873.64 1054 2842.7 1069.47Z"/><path d="M2530 1300.84 2892.61 1300.86 2892.61 1311.18 2530 1311.16ZM2887.46 1290.55 2918.39 1306.02 2887.45 1321.49Z"/><path d="M0-5.15625 57.2012-5.15625 57.2012 570.942 52.0449 565.786 89.7693 565.786 89.7693 576.098 46.8887 576.098 46.8887 0 52.0449 5.15625 0 5.15625ZM84.613 555.473 115.551 570.942 84.613 586.411Z" transform="matrix(1.83697e-16 1 1 -1.83697e-16 2202 618)"/><path d="M2778.1 870 2778.1 926.498 2202 926.498 2207.16 921.342 2207.16 960.653 2196.84 960.653 2196.84 916.186 2772.94 916.186 2767.79 921.342 2767.79 870ZM2217.47 955.497 2202 986.434 2186.53 955.497Z"/><path d="M2204.67 1399.78 2204.67 1438.17 2191.49 1438.17 2191.49 1427.85 2199.52 1427.85 2194.36 1433.01 2194.36 1399.78ZM2160.56 1438.17 2119.31 1438.17 2119.31 1427.85 2160.56 1427.85ZM2088.37 1438.17 2047.12 1438.17 2047.12 1427.85 2088.37 1427.85ZM2016.18 1438.17 1974.93 1438.17 1974.93 1427.85 2016.18 1427.85ZM1943.99 1438.17 1902.74 1438.17 1902.74 1427.85 1943.99 1427.85ZM1871.81 1438.17 1830.56 1438.17 1830.56 1427.85 1871.81 1427.85ZM1799.62 1438.17 1758.37 1438.17 1758.37 1427.85 1799.62 1427.85ZM1727.43 1438.17 1686.18 1438.17 1686.18 1427.85 1727.43 1427.85ZM1655.24 1438.17 1613.99 1438.17 1613.99 1427.85 1655.24 1427.85ZM1583.06 1438.17 1541.81 1438.17 1541.81 1427.85 1583.06 1427.85ZM1539.66 1456.64 1539.66 1497.89 1529.34 1497.89 1529.34 1456.64ZM1539.66 1528.83 1539.66 1560.23 1534.5 1555.07 1544.35 1555.07 1544.35 1565.38 1529.34 1565.38 1529.34 1528.83ZM1575.29 1555.07 1616.54 1555.07 1616.54 1565.38 1575.29 1565.38ZM2184.05 1404.94 2199.52 1374 2214.98 1404.94Z"/><path d="M2204.67 1399.78 2204.67 1439.11 2192.43 1439.11 2192.43 1428.79 2199.52 1428.79 2194.36 1433.95 2194.36 1399.78ZM2161.5 1439.11 2120.25 1439.11 2120.25 1428.79 2161.5 1428.79ZM2089.31 1439.11 2048.06 1439.11 2048.06 1428.79 2089.31 1428.79ZM2017.12 1439.11 1975.87 1439.11 1975.87 1428.79 2017.12 1428.79ZM1944.93 1439.11 1903.68 1439.11 1903.68 1428.79 1944.93 1428.79ZM1872.75 1439.11 1831.5 1439.11 1831.5 1428.79 1872.75 1428.79ZM1800.56 1439.11 1759.31 1439.11 1759.31 1428.79 1800.56 1428.79ZM1728.37 1439.11 1687.12 1439.11 1687.12 1428.79 1728.37 1428.79ZM1656.18 1439.11 1614.93 1439.11 1614.93 1428.79 1656.18 1428.79ZM1584 1439.11 1542.75 1439.11 1542.75 1428.79 1584 1428.79ZM1539.65 1456.64 1539.65 1497.89 1529.34 1497.89 1529.34 1456.64ZM1539.65 1528.83 1539.65 1570.08 1529.34 1570.08 1529.34 1528.83ZM1539.65 1601.01 1539.65 1642.26 1529.34 1642.26 1529.34 1601.01ZM1539.65 1673.2 1539.65 1714.45 1529.34 1714.45 1529.34 1673.2ZM1539.65 1745.39 1539.65 1786.64 1529.34 1786.64 1529.34 1745.39ZM1539.65 1817.58 1539.65 1858.83 1529.34 1858.83 1529.34 1817.58ZM1539.65 1889.76 1539.65 1931.01 1529.34 1931.01 1529.34 1889.76ZM1539.65 1961.95 1539.65 2003.2 1529.34 2003.2 1529.34 1961.95ZM1539.65 2034.14 1539.65 2065.7 1534.5 2060.54 1544.19 2060.54 1544.19 2070.85 1529.34 2070.85 1529.34 2034.14ZM1575.13 2060.54 1616.38 2060.54 1616.38 2070.85 1575.13 2070.85ZM2184.05 1404.94 2199.52 1374 2214.98 1404.94Z"/><path d="M5.15625-5.05115e-06 5.15659 342.621-5.15591 342.621-5.15625 5.05115e-06ZM15.4691 337.464 0.000360892 368.402-15.4684 337.464Z" transform="matrix(-1 0 0 1 2202 618)"/><path d="M25.7812-5.15625 63.3153-5.15625 63.3153 8.87218 53.0028 8.87218 53.0028 0 58.1591 5.15625 25.7812 5.15625ZM63.3153 39.8097 63.3153 81.0597 53.0028 81.0597 53.0028 39.8097ZM63.3153 111.997 63.3153 153.247 53.0028 153.247 53.0028 111.997ZM63.3153 184.185 63.3153 202.971 58.1591 197.815 80.6228 197.815 80.6228 208.127 53.0028 208.127 53.0028 184.185ZM111.56 197.815 116.318 197.815 116.318 208.127 111.56 208.127ZM30.9375 15.4688 0 0 30.9375-15.4688Z" transform="matrix(1.83697e-16 1 1 -1.83697e-16 1997 1628)"/><path d="M2699.04 1807.84 2924.63 1809.46 2924.56 1819.78 2698.96 1818.16ZM2919.55 1799.11 2950.38 1814.8 2919.33 1830.05Z"/><path d="M2530 1300.84 2771.03 1300.84 2771.03 1560.5 2765.87 1555.34 2975.97 1555.34 2975.97 1565.65 2760.72 1565.65 2760.72 1306 2765.87 1311.16 2530 1311.16ZM2970.81 1545.03 3001.75 1560.5 2970.81 1575.97Z"/><path d="M2220 2060.84 2918.72 2060.84 2918.72 2071.16 2220 2071.16ZM2913.56 2050.53 2944.5 2066 2913.56 2081.47Z"/><path d="M1406.03 1046.84 1774.39 1048.79 1774.34 1059.1 1405.97 1057.16ZM1769.29 1038.45 1800.14 1054.08 1769.13 1069.38Z"/><path d="M646 1562C646 1540.46 663.461 1523 685 1523L912 1523C933.54 1523 951 1540.46 951 1562L951 1562C951 1583.54 933.539 1601 912 1601L685 1601C663.461 1601 646 1583.54 646 1562Z" fill="#92D050" fill-rule="evenodd" fill-opacity="0.4"/><path d="M646 1562C646 1540.46 663.461 1523 685 1523L912 1523C933.54 1523 951 1540.46 951 1562L951 1562C951 1583.54 933.539 1601 912 1601L685 1601C663.461 1601 646 1583.54 646 1562Z" fill="#92D050" fill-rule="evenodd" fill-opacity="0.4"/><text font-family="Gadugi,Gadugi_MSFontService,sans-serif" font-weight="400" font-size="64" transform="matrix(1 0 0 1 710.197 1585)">Inputs</text><path d="M646 1646C646 1624.46 663.461 1607 685 1607L1339 1607C1360.54 1607 1378 1624.46 1378 1646L1378 1646C1378 1667.54 1360.54 1685 1339 1685L685 1685C663.461 1685 646 1667.54 646 1646Z" fill="#00B0F0" fill-rule="evenodd" fill-opacity="0.4"/><path d="M646 1646C646 1624.46 663.461 1607 685 1607L1339 1607C1360.54 1607 1378 1624.46 1378 1646L1378 1646C1378 1667.54 1360.54 1685 1339 1685L685 1685C663.461 1685 646 1667.54 646 1646Z" fill="#00B0F0" fill-rule="evenodd" fill-opacity="0.4"/><text font-family="Consolas,Consolas_MSFontService,sans-serif" font-weight="400" font-size="64" transform="matrix(1 0 0 1 692.183 1668)">Workflow Functions</text><path d="M646 1730C646 1708.46 663.461 1691 685 1691L1265 1691C1286.54 1691 1304 1708.46 1304 1730L1304 1730C1304 1751.54 1286.54 1769 1265 1769L685 1769C663.461 1769 646 1751.54 646 1730Z" fill="#FF66FF" fill-rule="evenodd" fill-opacity="0.4"/><path d="M646 1730C646 1708.46 663.461 1691 685 1691L1265 1691C1286.54 1691 1304 1708.46 1304 1730L1304 1730C1304 1751.54 1286.54 1769 1265 1769L685 1769C663.461 1769 646 1751.54 646 1730Z" fill="#FF66FF" fill-rule="evenodd" fill-opacity="0.4"/><text font-family="Consolas,Consolas_MSFontService,sans-serif" font-weight="400" font-size="64" transform="matrix(1 0 0 1 691.087 1752)">Called Functions</text><path d="M646 1814C646 1792.46 663.461 1775 685 1775L927 1775C948.539 1775 966 1792.46 966 1814L966 1814C966 1835.54 948.539 1853 927 1853L685 1853C663.461 1853 646 1835.54 646 1814Z" fill="#9933FF" fill-rule="evenodd" fill-opacity="0.4"/><path d="M646 1814C646 1792.46 663.461 1775 685 1775L927 1775C948.539 1775 966 1792.46 966 1814L966 1814C966 1835.54 948.539 1853 927 1853L685 1853C663.461 1853 646 1835.54 646 1814Z" fill="#9933FF" fill-rule="evenodd" fill-opacity="0.4"/><text font-family="Gadugi,Gadugi_MSFontService,sans-serif" font-weight="400" font-size="64" transform="matrix(1 0 0 1 691.577 1837)">Outputs<tspan font-weight="700" font-size="64" x="-11.3151" y="-336">KEY</tspan><tspan font-size="64" x="188.591" y="94">Argument flow</tspan></text><path d="M670 1902.84 827.629 1902.84 827.629 1913.16 670 1913.16ZM822.473 1892.53 853.41 1908 822.473 1923.47Z"/><text font-family="Gadugi,Gadugi_MSFontService,sans-serif" font-weight="400" font-size="64" transform="matrix(1 0 0 1 880.168 2015)">Is called by…</text><path d="M670 1986.84 711.25 1986.84 711.25 1997.16 670 1997.16ZM742.187 1986.84 783.437 1986.84 783.437 1997.16 742.187 1997.16ZM814.375 1986.84 827.629 1986.84 827.629 1997.16 814.375 1997.16ZM822.473 1976.53 853.41 1992 822.473 2007.47Z"/><path d="M628 1492.06C628 1462.76 651.757 1439 681.063 1439L1359.94 1439C1389.24 1439 1413 1462.76 1413 1492.06L1413 2012.94C1413 2042.24 1389.24 2066 1359.94 2066L681.063 2066C651.757 2066 628 2042.24 628 2012.94Z" stroke="#000000" stroke-width="2.29167" stroke-miterlimit="8" fill="none" fill-rule="evenodd"/></g></svg>